<svg width="100" height="100" viewBox="0 0 100 100" fill="none" xmlns="http://www.w3.org/2000/svg">
<circle cx="50" cy="50" r="50" fill="#001858"/>
<ellipse cx="50" cy="49.5" rx="46" ry="45.5" fill="#FEF6E4"/>
<path d="M34.36 42.52H39.24V44H32.54V30.06H34.36V42.52ZM42.1128 31.26C41.7661 31.26 41.4728 31.14 41.2328 30.9C40.9928 30.66 40.8728 30.3667 40.8728 30.02C40.8728 29.6733 40.9928 29.38 41.2328 29.14C41.4728 28.9 41.7661 28.78 42.1128 28.78C42.4461 28.78 42.7261 28.9 42.9528 29.14C43.1928 29.38 43.3128 29.6733 43.3128 30.02C43.3128 30.3667 43.1928 30.66 42.9528 30.9C42.7261 31.14 42.4461 31.26 42.1128 31.26ZM42.9928 33.04V44H41.1728V33.04H42.9928ZM49.9747 44.18C49.1347 44.18 48.3814 44.04 47.7147 43.76C47.048 43.4667 46.5214 43.0667 46.1347 42.56C45.748 42.04 45.5347 41.4467 45.4947 40.78H47.3747C47.428 41.3267 47.6814 41.7733 48.1347 42.12C48.6014 42.4667 49.208 42.64 49.9547 42.64C50.648 42.64 51.1947 42.4867 51.5947 42.18C51.9947 41.8733 52.1947 41.4867 52.1947 41.02C52.1947 40.54 51.9814 40.1867 51.5547 39.96C51.128 39.72 50.468 39.4867 49.5747 39.26C48.7614 39.0467 48.0947 38.8333 47.5747 38.62C47.068 38.3933 46.628 38.0667 46.2547 37.64C45.8947 37.2 45.7147 36.6267 45.7147 35.92C45.7147 35.36 45.8814 34.8467 46.2147 34.38C46.548 33.9133 47.0214 33.5467 47.6347 33.28C48.248 33 48.948 32.86 49.7347 32.86C50.948 32.86 51.928 33.1667 52.6747 33.78C53.4214 34.3933 53.8214 35.2333 53.8747 36.3H52.0547C52.0147 35.7267 51.7814 35.2667 51.3547 34.92C50.9414 34.5733 50.3814 34.4 49.6747 34.4C49.0214 34.4 48.5014 34.54 48.1147 34.82C47.728 35.1 47.5347 35.4667 47.5347 35.92C47.5347 36.28 47.648 36.58 47.8747 36.82C48.1147 37.0467 48.408 37.2333 48.7547 37.38C49.1147 37.5133 49.608 37.6667 50.2347 37.84C51.0214 38.0533 51.6614 38.2667 52.1547 38.48C52.648 38.68 53.068 38.9867 53.4147 39.4C53.7747 39.8133 53.9614 40.3533 53.9747 41.02C53.9747 41.62 53.808 42.16 53.4747 42.64C53.1414 43.12 52.668 43.5 52.0547 43.78C51.4547 44.0467 50.7614 44.18 49.9747 44.18ZM55.8639 38.48C55.8639 37.36 56.0906 36.38 56.5439 35.54C56.9972 34.6867 57.6172 34.0267 58.4039 33.56C59.2039 33.0933 60.0906 32.86 61.0639 32.86C62.0239 32.86 62.8572 33.0667 63.5639 33.48C64.2706 33.8933 64.7972 34.4133 65.1439 35.04V33.04H66.9839V44H65.1439V41.96C64.7839 42.6 64.2439 43.1333 63.5239 43.56C62.8172 43.9733 61.9906 44.18 61.0439 44.18C60.0706 44.18 59.1906 43.94 58.4039 43.46C57.6172 42.98 56.9972 42.3067 56.5439 41.44C56.0906 40.5733 55.8639 39.5867 55.8639 38.48ZM65.1439 38.5C65.1439 37.6733 64.9772 36.9533 64.6439 36.34C64.3106 35.7267 63.8572 35.26 63.2839 34.94C62.7239 34.6067 62.1039 34.44 61.4239 34.44C60.7439 34.44 60.1239 34.6 59.5639 34.92C59.0039 35.24 58.5572 35.7067 58.2239 36.32C57.8906 36.9333 57.7239 37.6533 57.7239 38.48C57.7239 39.32 57.8906 40.0533 58.2239 40.68C58.5572 41.2933 59.0039 41.7667 59.5639 42.1C60.1239 42.42 60.7439 42.58 61.4239 42.58C62.1039 42.58 62.7239 42.42 63.2839 42.1C63.8572 41.7667 64.3106 41.2933 64.6439 40.68C64.9772 40.0533 65.1439 39.3267 65.1439 38.5Z" fill="black"/>
<path d="M25.15 49.15C24.57 47.93 23.73 46.99 22.63 46.33C21.53 45.65 20.25 45.31 18.79 45.31C17.33 45.31 16.01 45.65 14.83 46.33C13.67 46.99 12.75 47.95 12.07 49.21C11.41 50.45 11.08 51.89 11.08 53.53C11.08 55.17 11.41 56.61 12.07 57.85C12.75 59.09 13.67 60.05 14.83 60.73C16.01 61.39 17.33 61.72 18.79 61.72C20.83 61.72 22.51 61.11 23.83 59.89C25.15 58.67 25.92 57.02 26.14 54.94H17.8V52.72H29.05V54.82C28.89 56.54 28.35 58.12 27.43 59.56C26.51 60.98 25.3 62.11 23.8 62.95C22.3 63.77 20.63 64.18 18.79 64.18C16.85 64.18 15.08 63.73 13.48 62.83C11.88 61.91 10.61 60.64 9.67 59.02C8.75 57.4 8.29 55.57 8.29 53.53C8.29 51.49 8.75 49.66 9.67 48.04C10.61 46.4 11.88 45.13 13.48 44.23C15.08 43.31 16.85 42.85 18.79 42.85C21.01 42.85 22.97 43.4 24.67 44.5C26.39 45.6 27.64 47.15 28.42 49.15H25.15ZM35.3896 50.23C35.8696 49.29 36.5496 48.56 37.4296 48.04C38.3296 47.52 39.4196 47.26 40.6996 47.26V50.08H39.9796C36.9196 50.08 35.3896 51.74 35.3896 55.06V64H32.6596V47.56H35.3896V50.23ZM42.831 55.72C42.831 54.04 43.171 52.57 43.851 51.31C44.531 50.03 45.461 49.04 46.641 48.34C47.841 47.64 49.171 47.29 50.631 47.29C52.071 47.29 53.321 47.6 54.381 48.22C55.441 48.84 56.231 49.62 56.751 50.56V47.56H59.511V64H56.751V60.94C56.211 61.9 55.401 62.7 54.321 63.34C53.261 63.96 52.021 64.27 50.601 64.27C49.141 64.27 47.821 63.91 46.641 63.19C45.461 62.47 44.531 61.46 43.851 60.16C43.171 58.86 42.831 57.38 42.831 55.72ZM56.751 55.75C56.751 54.51 56.501 53.43 56.001 52.51C55.501 51.59 54.821 50.89 53.961 50.41C53.121 49.91 52.191 49.66 51.171 49.66C50.151 49.66 49.221 49.9 48.381 50.38C47.541 50.86 46.871 51.56 46.371 52.48C45.871 53.4 45.621 54.48 45.621 55.72C45.621 56.98 45.871 58.08 46.371 59.02C46.871 59.94 47.541 60.65 48.381 61.15C49.221 61.63 50.151 61.87 51.171 61.87C52.191 61.87 53.121 61.63 53.961 61.15C54.821 60.65 55.501 59.94 56.001 59.02C56.501 58.08 56.751 56.99 56.751 55.75ZM72.1345 47.26C74.1345 47.26 75.7545 47.87 76.9945 49.09C78.2345 50.29 78.8545 52.03 78.8545 54.31V64H76.1545V54.7C76.1545 53.06 75.7445 51.81 74.9245 50.95C74.1045 50.07 72.9845 49.63 71.5645 49.63C70.1245 49.63 68.9745 50.08 68.1145 50.98C67.2745 51.88 66.8545 53.19 66.8545 54.91V64H64.1245V47.56H66.8545V49.9C67.3945 49.06 68.1245 48.41 69.0445 47.95C69.9845 47.49 71.0145 47.26 72.1345 47.26ZM86.6439 49.81V59.5C86.6439 60.3 86.8139 60.87 87.1539 61.21C87.4939 61.53 88.0839 61.69 88.9239 61.69H90.9339V64H88.4739C86.9539 64 85.8139 63.65 85.0539 62.95C84.2939 62.25 83.9139 61.1 83.9139 59.5V49.81H81.7839V47.56H83.9139V43.42H86.6439V47.56H90.9339V49.81H86.6439Z" fill="black"/>
</svg>
